{"accessors" : [{"bufferView" : 0, "byteOffset" : 0, "componentType" : 5123, "count" : 4989, "type" : "SCALAR", "max" : [4988], "min" : [0]}, {"bufferView" : 1, "byteOffset" : 0, "componentType" : 5126, "count" : 4989, "type" : "VEC3", "max" : [0.38469192385673523, 1.48640775680542, -0.15671516954898834], "min" : [0.18010561168193817, 1.0273268222808838, -0.3230270445346832], "name" : "POSITION"}, {"bufferView" : 1, "byteOffset" : 12, "componentType" : 5121, "normalized" : true, "count" : 4989, "type" : "VEC4", "name" : "COLOR_0"}, {"bufferView" : 1, "byteOffset" : 16, "componentType" : 5126, "count" : 4989, "type" : "VEC3", "max" : [0.999424397945404, 0.9987664818763733, 0.9931175112724304], "min" : [-0.9994242787361145, -0.9987664818763733, -0.9971156716346741], "name" : "NORMAL"}], "asset" : {"generator" : "Aspose.3D 21.3.1", "version" : "2.0"}, "buffers" : [{"uri" : "buffer.bin", "byteLength" : 149680}], "bufferViews" : [{"buffer" : 0, "byteOffset" : 0, "byteLength" : 9980, "target" : 34963}, {"buffer" : 0, "byteOffset" : 9984, "byteLength" : 139692, "byteStride" : 28, "target" : 34962}], "cameras" : [{"perspective" : {"aspectRatio" : 1, "yfov" : 0.7853981633974483, "zfar" : 0, "znear" : 0.1000000014901161}, "type" : "perspective"}], "materials" : [{"pbrMetallicRoughness" : {"baseColorFactor" : [1, 1, 1, 1], "metallicFactor" : 0, "roughnessFactor" : 0.6}, "emissiveFactor" : [0, 0, 0], "alphaMode" : "OPAQUE", "doubleSided" : false}], "meshes" : [{"primitives" : [{"attributes" : {"POSITION" : 1, "COLOR_0" : 2, "NORMAL" : 3}, "indices" : 0, "material" : 0, "mode" : 4}]}], "nodes" : [{"mesh" : 0, "name" : "node_MeshObject-144533248-PolyPaper23"}, {"children" : [0], "matrix" : [1, 0, 0, 0, 0, 1, 0, 0, 0, 0, 1, 0, -0.2831917542763361, -1.240420517944978, 0.2409525385621216, 1]}, {"children" : [1], "matrix" : [1, 0, 0, 0, 0, 1, 0, 0, 0, 0, 1, 0, 0.2831917542763361, 1.240420517944978, -0.2409525385621216, 1]}, {"children" : [2]}, {"camera" : 0, "matrix" : [0.265393530387652, 1.3118921698973551E-08, 0.9641401734334992, 0, 0.3430651188338171, 0.9345526256253922, -0.09443364959708181, 0, -0.9010397317920654, 0.35582494282538046, 0.248024216147128, 0, -0.5207465291023254, 1.562823414802551, -0.01048018038272858, 1]}], "scene" : 0, "scenes" : [{"nodes" : [3, 4]}]}