{"accessors" : [{"bufferView" : 0, "byteOffset" : 0, "componentType" : 5123, "count" : 2196, "type" : "SCALAR", "max" : [2195], "min" : [0]}, {"bufferView" : 1, "byteOffset" : 0, "componentType" : 5126, "count" : 2196, "type" : "VEC3", "max" : [1.9019429683685303, 2.465465784072876, 0.46490705013275146], "min" : [-0.6106481552124023, -1.4174997806549072, -2.4600136280059814], "name" : "POSITION"}, {"bufferView" : 1, "byteOffset" : 12, "componentType" : 5121, "normalized" : true, "count" : 2196, "type" : "VEC4", "name" : "COLOR_0"}, {"bufferView" : 1, "byteOffset" : 16, "componentType" : 5126, "count" : 2196, "type" : "VEC3", "max" : [1.0000042915344238, 0.9972079992294312, 0.9999974370002747], "min" : [-0.9999067783355713, -1.0000029802322388, -1.0000042915344238], "name" : "NORMAL"}], "asset" : {"generator" : "Aspose.3D 21.3.1", "version" : "2.0"}, "buffers" : [{"uri" : "buffer.bin", "byteLength" : 65888}], "bufferViews" : [{"buffer" : 0, "byteOffset" : 0, "byteLength" : 4392, "target" : 34963}, {"buffer" : 0, "byteOffset" : 4396, "byteLength" : 61488, "byteStride" : 28, "target" : 34962}], "cameras" : [{"perspective" : {"aspectRatio" : 1, "yfov" : 0.7853981633974483, "zfar" : 0, "znear" : 0.1000000014901161}, "type" : "perspective"}], "materials" : [{"pbrMetallicRoughness" : {"baseColorFactor" : [1, 1, 1, 1], "metallicFactor" : 0, "roughnessFactor" : 0.6}, "emissiveFactor" : [0, 0, 0], "alphaMode" : "OPAQUE", "doubleSided" : false}], "meshes" : [{"primitives" : [{"attributes" : {"POSITION" : 1, "COLOR_0" : 2, "NORMAL" : 3}, "indices" : 0, "material" : 0, "mode" : 4}]}], "nodes" : [{"mesh" : 0, "name" : "node_MeshObject-898641600-PolyPaper13"}, {"children" : [0], "matrix" : [1, 0, 0, 0, 0, 1, 0, 0, 0, 0, 1, 0, -0.2858753529036211, -0.1763694255209312, 1.077240595845851, 1]}, {"children" : [1], "matrix" : [1, 0, 0, 0, 0, 1, 0, 0, 0, 0, 1, 0, 0.2858753529036211, 0.1763694255209312, -1.077240595845851, 1]}, {"children" : [2]}, {"camera" : 0, "matrix" : [0.7614922605048065, -2.7755575615628914E-17, 0.6481740022488408, 0, 0.2898719201960023, 0.8944274269389514, -0.3405493324340092, 0, -0.5797446050401528, 0.44721312362157584, 0.6810995631972396, 0, -3.611537175038309, 3.18302976676816, 3.501871556810486, 1]}], "scene" : 0, "scenes" : [{"nodes" : [3, 4]}]}