{"accessors" : [{"bufferView" : 0, "byteOffset" : 0, "componentType" : 5123, "count" : 336, "type" : "SCALAR", "max" : [191], "min" : [0]}, {"bufferView" : 1, "byteOffset" : 0, "componentType" : 5126, "count" : 192, "type" : "VEC3", "max" : [1.2394030094146729, 0.2061759978532791, 0.8662989735603333], "min" : [-1.2394030094146729, 0.0002530000056140125, -0.8662989735603333], "name" : "POSITION"}, {"bufferView" : 1, "byteOffset" : 12, "componentType" : 5126, "count" : 192, "type" : "VEC3", "max" : [1.0000044107437134, 1.0000044107437134, 1.0000044107437134], "min" : [-1.0000044107437134, -1.0000044107437134, -1.0000044107437134], "name" : "NORMAL"}, {"bufferView" : 1, "byteOffset" : 24, "componentType" : 5126, "count" : 192, "type" : "VEC2", "max" : [0.9671199917793274, -0.209974005818367], "min" : [0.21996000409126282, -0.9690920114517212], "name" : "TEXCOORD_0"}, {"bufferView" : 0, "byteOffset" : 672, "componentType" : 5123, "count" : 1704, "type" : "SCALAR", "max" : [490], "min" : [0]}, {"bufferView" : 2, "byteOffset" : 0, "componentType" : 5126, "count" : 491, "type" : "VEC3", "max" : [1.3111480474472046, 1.9905229806900024, 1], "min" : [-1.309999942779541, 0.18140800297260284, -1.0000749826431274], "name" : "POSITION"}, {"bufferView" : 2, "byteOffset" : 12, "componentType" : 5126, "count" : 491, "type" : "VEC3", "max" : [1.0000044107437134, 1.0000044107437134, 1.0000044107437134], "min" : [-1.0000044107437134, -1.0000044107437134, -1.0000044107437134], "name" : "NORMAL"}, {"bufferView" : 2, "byteOffset" : 24, "componentType" : 5126, "count" : 491, "type" : "VEC2", "max" : [1, -0], "min" : [0, -1], "name" : "TEXCOORD_0"}, {"bufferView" : 0, "byteOffset" : 4080, "componentType" : 5123, "count" : 2880, "type" : "SCALAR", "max" : [611], "min" : [0]}, {"bufferView" : 3, "byteOffset" : 0, "componentType" : 5126, "count" : 612, "type" : "VEC3", "max" : [0.998324990272522, 1.7179080247879028, 0.46035701036453247], "min" : [0.0582440011203289, 0.9214969873428345, -0.5244140028953552], "name" : "POSITION"}, {"bufferView" : 3, "byteOffset" : 12, "componentType" : 5126, "count" : 612, "type" : "VEC3", "max" : [0.9794503450393677, 0.9936560988426208, 0.9989826083183289], "min" : [-0.9794938564300537, -0.9936560988426208, -0.9989954829216003], "name" : "NORMAL"}, {"bufferView" : 3, "byteOffset" : 24, "componentType" : 5126, "count" : 612, "type" : "VEC2", "max" : [0.9575660228729248, -0.5576670169830322], "min" : [0.39673200249671936, -0.9684540033340454], "name" : "TEXCOORD_0"}, {"bufferView" : 0, "byteOffset" : 9840, "componentType" : 5123, "count" : 2880, "type" : "SCALAR", "max" : [617], "min" : [0]}, {"bufferView" : 4, "byteOffset" : 0, "componentType" : 5126, "count" : 618, "type" : "VEC3", "max" : [0.5210630297660828, 1.6616630554199219, 0.5203689932823181], "min" : [-0.5274749994277954, 0.9376609921455383, -0.4874440133571625], "name" : "POSITION"}, {"bufferView" : 4, "byteOffset" : 12, "componentType" : 5126, "count" : 618, "type" : "VEC3", "max" : [0.9882939457893372, 0.996553361415863, 0.9932484030723572], "min" : [-0.9883072972297668, -0.996553361415863, -0.993226945400238], "name" : "NORMAL"}, {"bufferView" : 4, "byteOffset" : 24, "componentType" : 5126, "count" : 618, "type" : "VEC2", "max" : [0.9528650045394897, -0.279107004404068], "min" : [0, -0.9996169805526733], "name" : "TEXCOORD_0"}], "asset" : {"generator" : "Aspose.3D 21.3.1", "version" : "2.0"}, "buffers" : [{"uri" : "buffer.bin", "byteLength" : 265220}], "bufferViews" : [{"buffer" : 0, "byteOffset" : 0, "byteLength" : 15600, "target" : 34963}, {"buffer" : 0, "byteOffset" : 15604, "byteLength" : 10752, "byteStride" : 32, "target" : 34962}, {"buffer" : 0, "byteOffset" : 26360, "byteLength" : 54528, "byteStride" : 32, "target" : 34962}, {"buffer" : 0, "byteOffset" : 80892, "byteLength" : 92160, "byteStride" : 32, "target" : 34962}, {"buffer" : 0, "byteOffset" : 173056, "byteLength" : 92160, "byteStride" : 32, "target" : 34962}], "cameras" : [{"perspective" : {"aspectRatio" : 1, "yfov" : 0.7853981633974483, "zfar" : 0, "znear" : 0.1000000014901161}, "type" : "perspective"}], "materials" : [{"pbrMetallicRoughness" : {"baseColorFactor" : [0.169785, 0.184592, 0.203322, 1], "metallicFactor" : 0, "roughnessFactor" : 0.7448017359246658}, "emissiveFactor" : [0, 0, 0], "alphaMode" : "OPAQUE", "doubleSided" : true}, {"pbrMetallicRoughness" : {"baseColorFactor" : [0.778756, 0.402309, 0.000728, 1], "metallicFactor" : 0, "roughnessFactor" : 0.7448017359246658}, "emissiveFactor" : [0, 0, 0], "alphaMode" : "OPAQUE", "doubleSided" : true}, {"pbrMetallicRoughness" : {"baseColorFactor" : [0.044903, 0.187641, 0.730479, 1], "metallicFactor" : 0, "roughnessFactor" : 0.7448017359246658}, "emissiveFactor" : [0, 0, 0], "alphaMode" : "OPAQUE", "doubleSided" : true}, {"pbrMetallicRoughness" : {"baseColorFactor" : [0.658229, 0.043584, 0.028481, 1], "metallicFactor" : 0, "roughnessFactor" : 0.7448017359246658}, "emissiveFactor" : [0, 0, 0], "alphaMode" : "OPAQUE", "doubleSided" : true}], "meshes" : [{"primitives" : [{"attributes" : {"POSITION" : 1, "NORMAL" : 2, "TEXCOORD_0" : 3}, "indices" : 0, "material" : 0, "mode" : 4}, {"attributes" : {"POSITION" : 5, "NORMAL" : 6, "TEXCOORD_0" : 7}, "indices" : 4, "material" : 1, "mode" : 4}, {"attributes" : {"POSITION" : 9, "NORMAL" : 10, "TEXCOORD_0" : 11}, "indices" : 8, "material" : 2, "mode" : 4}, {"attributes" : {"POSITION" : 13, "NORMAL" : 14, "TEXCOORD_0" : 15}, "indices" : 12, "material" : 3, "mode" : 4}]}], "nodes" : [{"mesh" : 0, "name" : "node-0"}, {"children" : [0], "matrix" : [1, 0, 0, 0, 0, 1, 0, 0, 0, 0, 1, 0, 0.006126365039283614, -1.02585085304166, -0.006385166341026206, 1]}, {"children" : [1], "matrix" : [1, 0, 0, 0, 0, 1, 0, 0, 0, 0, 1, 0, -0.006126365039283614, 1.02585085304166, 0.006385166341026206, 1]}, {"children" : [2]}, {"camera" : 0, "matrix" : [0.7203316798737638, 0, 0.6936297794719035, 0, 0.14197398459936736, 0.9788283868430151, -0.14743940045754153, 0, -0.6789445181067597, 0.20468265463956806, 0.7050810962027554, 0, -3.419170477120043, 2.054718517863575, 3.550965985164477, 1]}], "scene" : 0, "scenes" : [{"nodes" : [3, 4]}]}